<svg width="20" height="20" viewBox="0 0 20 20" fill="none" xmlns="http://www.w3.org/2000/svg">
<path d="M14.7687 0.0502194C12.3235 -0.0167398 7.42929 -0.0167398 4.98407 0.0502194C3.71159 0.0851037 2.26905 0.401404 1.36243 1.36833C0.420321 2.37342 0.0643146 3.58774 0.028206 4.9462C-0.0352575 7.3305 0.028206 14.4869 0.028206 14.4869C0.0695511 15.8452 0.420321 17.0596 1.36243 18.0647C2.26905 19.032 3.71159 19.348 4.98407 19.3828C7.42929 19.4498 12.3235 19.4498 14.7687 19.3828C16.0412 19.348 17.4837 19.0317 18.3903 18.0647C19.3324 17.0596 19.6885 15.8453 19.7246 14.4869V4.9462C19.6885 3.58774 19.3324 2.37342 18.3903 1.36833C17.4834 0.401091 16.0409 0.0851037 14.7687 0.0502194ZM9.87607 16.0671C8.61818 16.0671 7.38853 15.6947 6.34263 14.9968C5.29673 14.299 4.48155 13.3072 4.00017 12.1468C3.5188 10.9864 3.39285 9.70948 3.63825 8.47759C3.88365 7.2457 4.48938 6.11413 5.37885 5.22599C6.26832 4.33784 7.40157 3.73301 8.63529 3.48797C9.86902 3.24293 11.1478 3.36869 12.3099 3.84936C13.4721 4.33002 14.4654 5.14399 15.1642 6.18833C15.8631 7.23268 16.2361 8.4605 16.2361 9.71653C16.2361 11.4008 15.566 13.0161 14.3733 14.2071C13.1806 15.398 11.5629 16.0671 9.87607 16.0671ZM16.2631 4.6768C16.0116 4.67674 15.7657 4.6022 15.5565 4.4626C15.3474 4.323 15.1844 4.12461 15.0882 3.89252C14.992 3.66043 14.9668 3.40506 15.0159 3.1587C15.065 2.91235 15.1862 2.68606 15.3641 2.50846C15.542 2.33087 15.7687 2.20993 16.0154 2.16095C16.2621 2.11197 16.5179 2.13714 16.7503 2.23328C16.9827 2.32942 17.1814 2.49221 17.3211 2.70108C17.4609 2.90994 17.5355 3.15549 17.5355 3.40668C17.5355 3.5735 17.5025 3.73869 17.4386 3.89281C17.3747 4.04693 17.2809 4.18696 17.1628 4.3049C17.0446 4.42285 16.9044 4.5164 16.75 4.58021C16.5957 4.64402 16.4302 4.67684 16.2631 4.6768Z" fill="white"/>
</svg>
