<svg width="14" height="23" viewBox="0 0 14 23" fill="none" xmlns="http://www.w3.org/2000/svg">
<path d="M0.204095 11.897C-0.362076 13.0099 0.280754 13.5419 1.74744 14.4508C2.99431 15.2211 4.71684 15.5028 5.82332 15.6154C5.36983 16.0514 7.44794 14.0527 1.46297 19.8095C0.193935 21.0259 2.23695 22.9775 3.50506 21.787L6.93811 18.4758C8.2524 19.7403 9.5122 20.952 10.3712 21.7916C11.6402 22.9867 13.6823 21.0518 12.4271 19.8141C12.3329 19.7246 7.7749 15.3522 8.0529 15.6201C9.17324 15.5074 10.8699 15.209 12.102 14.4554L12.1011 14.4545C13.5678 13.541 14.2106 13.0099 13.6527 11.897C13.3156 11.2652 12.4068 10.7369 11.1969 11.6504C11.1969 11.6504 9.563 12.9019 6.92795 12.9019C4.29198 12.9019 2.65904 11.6504 2.65904 11.6504C1.45004 10.7323 0.537517 11.2652 0.204095 11.897Z" fill="white"/>
<path d="M6.92611 11.2144C10.1384 11.2144 12.7615 8.70407 12.7615 5.61368C12.7615 2.51036 10.1384 0 6.92611 0C3.71289 0 1.08984 2.51036 1.08984 5.61368C1.08984 8.70407 3.71289 11.2144 6.92611 11.2144ZM6.92611 2.84379C8.50456 2.84379 9.79207 4.08234 9.79207 5.61368C9.79207 7.13209 8.50456 8.37065 6.92611 8.37065C5.34767 8.37065 4.06016 7.13209 4.06016 5.61368C4.05924 4.08142 5.34675 2.84379 6.92611 2.84379Z" fill="white"/>
</svg>
