<svg width="20" height="16" viewBox="0 0 20 16" fill="none" xmlns="http://www.w3.org/2000/svg">
<path d="M19.6822 1.89833C18.9078 2.23138 18.1333 2.43938 17.3593 2.52292C18.2335 1.99841 18.8248 1.25742 19.1329 0.299985C18.3333 0.774457 17.48 1.09907 16.5726 1.27399C15.7733 0.424782 14.791 0 13.6251 0C12.5096 0 11.5585 0.393331 10.7714 1.18017C9.9847 1.96696 9.59133 2.91809 9.59133 4.03369C9.59133 4.33337 9.62457 4.64154 9.69124 4.95788C8.04268 4.87464 6.49621 4.46045 5.05158 3.7153C3.60703 2.97006 2.38107 1.9772 1.37368 0.736708C1.00734 1.361 0.824105 2.03966 0.824105 2.7723C0.824105 3.46334 0.986432 4.10451 1.31131 4.69565C1.63596 5.28669 2.07317 5.76536 2.6227 6.13175C1.97317 6.10673 1.36542 5.936 0.799347 5.61962V5.66957C0.799347 6.64375 1.10532 7.49905 1.71719 8.2361C2.32915 8.97307 3.10142 9.43696 4.03383 9.62855C3.68411 9.72002 3.33019 9.76582 2.97225 9.76582C2.7391 9.76582 2.48513 9.74504 2.21043 9.7037C2.46851 10.5111 2.94311 11.1749 3.63407 11.6955C4.32515 12.2159 5.10779 12.4841 5.98202 12.5012C4.51674 13.6499 2.84745 14.2243 0.974141 14.2243C0.616066 14.2243 0.291455 14.208 0 14.1745C1.87335 15.3816 3.93812 15.9851 6.19443 15.9851C7.62647 15.9851 8.97111 15.7585 10.2279 15.3046C11.4853 14.8511 12.5592 14.2431 13.4502 13.4812C14.3409 12.7194 15.1091 11.8431 15.7543 10.8524C16.3995 9.86161 16.8801 8.82724 17.1968 7.74908C17.513 6.6707 17.6713 5.59066 17.6713 4.50812C17.6713 4.27498 17.6671 4.10023 17.6587 3.98361C18.4499 3.4094 19.1243 2.71408 19.6822 1.89833Z" fill="white"/>
</svg>
