<svg width="24" height="14" viewBox="0 0 24 14" fill="none" xmlns="http://www.w3.org/2000/svg">
<path fill-rule="evenodd" clip-rule="evenodd" d="M20.371 8.517C21.1561 9.28356 21.9848 10.0048 22.689 10.8486C23.0001 11.2236 23.2946 11.6106 23.5199 12.0458C23.8391 12.6644 23.55 13.3452 22.9952 13.3822L19.547 13.3806C18.6577 13.4544 17.9482 13.0964 17.3516 12.4883C16.8742 12.002 16.4321 11.4845 15.973 10.9818C15.7848 10.7763 15.5878 10.583 15.3525 10.4302C14.8818 10.1246 14.4732 10.2182 14.2042 10.7091C13.9302 11.2085 13.8681 11.7614 13.8412 12.3179C13.8042 13.1299 13.5588 13.3434 12.7432 13.3805C11.0001 13.4627 9.34578 13.199 7.80901 12.3197C6.45413 11.5445 5.40349 10.4502 4.48901 9.21124C2.70851 6.79879 1.34501 4.14791 0.119539 1.42277C-0.156304 0.808787 0.0454259 0.479207 0.722863 0.467542C1.84778 0.445689 2.97254 0.447244 4.09877 0.465986C4.55597 0.472674 4.85865 0.734908 5.03518 1.16683C5.64379 2.66332 6.3885 4.0871 7.32327 5.40682C7.57221 5.75818 7.82604 6.10953 8.18751 6.35684C8.58739 6.63066 8.89185 6.5399 9.07997 6.09445C9.19935 5.81199 9.25161 5.50777 9.27851 5.20525C9.36764 4.16448 9.37938 3.1255 9.22307 2.08838C9.1271 1.44112 8.76252 1.02211 8.11666 0.899621C7.78708 0.837173 7.83615 0.714533 7.99573 0.526412C8.2729 0.201964 8.53357 0 9.05322 0H12.9503C13.5638 0.121085 13.7 0.396695 13.784 1.01402L13.7873 5.34282C13.7807 5.5818 13.9067 6.29097 14.3372 6.44915C14.6817 6.56176 14.9088 6.28615 15.1155 6.0677C16.0485 5.0774 16.7145 3.90707 17.3094 2.69521C17.5734 2.16234 17.8004 1.60894 18.0204 1.05601C18.1834 0.645708 18.4392 0.443822 18.9014 0.452765L22.6521 0.456109C22.7633 0.456109 22.8758 0.457743 22.9835 0.476174C23.6155 0.583882 23.7887 0.85576 23.5935 1.47293C23.2859 2.44122 22.6875 3.24814 22.1024 4.05879C21.4769 4.92427 20.8079 5.76012 20.1877 6.63074C19.6178 7.42576 19.663 7.8265 20.371 8.517Z" fill="white"/>
</svg>
